{"title":"Hatchet.II.2010.DVDRiP.XViD.AC3.NiTR0","uid":6145506,"size":1494477358,"categoryP":"video","categoryS":"movies","magnet":"?xt=urn:btih:a2cee32f9892bd0e516b2477d66d2ca9e4672bc0&amp;dn=Hatchet.II.2010.DVDRiP.XViD.AC3.NiTR0&amp;tr=udp%3A%2F%2Ftracker.openbittorrent.com%3A80&amp;tr=udp%3A%2F%2Fopen.demonii.com%3A1337&amp;tr=udp%3A%2F%2Ftracker.coppersurfer.tk%3A6969&amp;tr=udp%3A%2F%2Fexodus.desync.com%3A6969","seeders":0,"leechers":0,"uploader":"TvTeam","files":5,"time":1296659970,"description":". \n  &lt;a href=&quot;\nhttp://www.torrentday.com/&quot; rel=&quot;nofollow&quot; target=&quot;_NEW&quot;&gt;\nhttp://www.torrentday.com/&lt;/a&gt;        :     The Hottest Private Tracker On The Net!!!\n &lt;a href=&quot;\nhttp://www.torrentday.com&quot; rel=&quot;nofollow&quot; target=&quot;_NEW&quot;&gt;\nhttp://www.torrentday.com&lt;/a&gt;          :     Once &amp; For all ;)\n\n\n               www . TorrentDay . Com \n\n(((((((((((((= Enjoy No RAR releases =))))))))))))))))))))\n\n\n...................................NFO:....................................\n\n.[img]http://img703.imageshack.us/img703/7972/posterps.jpg[/img]\n\n[color=red][size=4][b]Hatchet.II.2010.DVDRiP.XViD.AC3.NiTR0[/b][/size][/color]\n\nRuntime: 89 min\nSource: R1 NTSC DVD9 \nIMDB: http://www.imdb.com/title/tt1270835/\nGenre: Action | Comedy | Horror  \nLanguage: English\nSubtitles: None\n\n[color=red][size=3][b]General[/b][/size][/color]\nComplete name                    : Hatchet.II.2010.DVDRiP.XViD.AC3.NiTR0.avi\nFormat                           : AVI\nFormat/Info                      : Audio Video Interleave\nFormat profile                   : OpenDML\nFormat settings                  : rec\nFile size                        : 1.37 GiB\nDuration                         : 1h 25mn\nOverall bit rate                 : 2 294 Kbps\n\n[color=red][size=3][b]Video[/b][/size][/color]\nFormat                           : MPEG-4 Visual\nFormat profile                   : Advanced Simple@L5\nFormat settings, BVOP            : 2\nFormat settings, QPel            : No\nFormat settings, GMC             : No warppoints\nFormat settings, Matrix          : Default (H.263)\nMuxing mode                      : Packed bitstream\nCodec ID                         : XVID\nDuration                         : 1h 25mn\nBit rate                         : 2 096 Kbps\nWidth                            : 720 pixels\nHeight                           : 400 pixels\nDisplay aspect ratio             : 16:9\nFrame rate                       : 23.976 fps\nScan type                        : Progressive\nStream size                      : 1.25 GiB (91%)\n\n[color=red][size=3][b]Audio[/b][/size][/color]\nFormat                           : AC-3\nFormat/Info                      : Audio Coding 3\nMode extension                   : CM (complete main)\nCodec ID                         : 2000\nDuration                         : 1h 25mn\nBit rate mode                    : Constant\nBit rate                         : 192 Kbps\nChannel(s)                       : 2 channels\nChannel positions                : Front: L R\nSampling rate                    : 48.0 KHz\nBit depth                        : 16 bits\nStream size                      : 117 MiB (8%)\n\n[color=red][size=3][b]Plot:[/b][/size][/color]\nPicking up right where the original ended, Marybeth escapes the clutches of the deformed, swamp-dwelling iconic killer Victor Crowley. After learning the truth about her familys connection to the hatchet-wielding madman, Marybeth returns to the Louisiana swamps along with an army of hunters to recover the bodies of her family and exact the bloodiest revenge against the bayou butcher.\n\n[color=red][size=3][b]Group Notes:[/b][/size][/color]\nSpecial Thanks to HiTM4N\n\n[color=red][size=3][b]Screens:[/b][/size][/color]\n[img]http://img253.imageshack.us/img253/2416/79738685.png[/img]\n[img]http://img253.imageshack.us/img253/42/58205495.png[/img]","torrent":{"xt":"urn:btih:a2cee32f9892bd0e516b2477d66d2ca9e4672bc0","amp;dn":"Hatchet.II.2010.DVDRiP.XViD.AC3.NiTR0","amp;tr":["udp%3A%2F%2Ftracker.openbittorrent.com%3A80","udp%3A%2F%2Fopen.demonii.com%3A1337","udp%3A%2F%2Ftracker.coppersurfer.tk%3A6969","udp%3A%2F%2Fexodus.desync.com%3A6969"],"infoHash":"a2cee32f9892bd0e516b2477d66d2ca9e4672bc0","infoHashBuffer":{"type":"Buffer","data":[162,206,227,47,152,146,189,14,81,107,36,119,214,109,44,169,228,103,43,192]},"announce":[],"urlList":[]}}